<svg height="512" viewBox="0 0 512 512" width="512" xmlns="http://www.w3.org/2000/svg"><g id="filled_outline" data-name="filled outline"><path d="m216 120 40 8v-16h24v-24h8l-8-32h-64z" fill="#f6bb92"/><path d="m256 56-16 26h-24v-26z" fill="#683b0d"/><path d="m184 264v80h56v-32z" fill="#0a6fa2"/><path d="m184 256a32 32 0 0 1 -32-32v-48l62.926-8.892s-17.394 88.892-17.394 90.23-13.532-1.338-13.532-1.338z" fill="#029532"/><path d="m270 196 50 20 72-8h24l8-24-24-16-16 8-56 8-48-32z" fill="#f6bb92"/><path d="m168 181.333 32-5.333-5.616 22.462a190.654 190.654 0 0 0 -3.774 19.271l-6.61 46.267h8a120 120 0 0 0 72-24v-16l16-32v-40l-24-24-39.258-8h-19.46a20.008 20.008 0 0 0 -8.635 1.96l-36.647 17.54z" fill="#e82f3e"/><path d="m236.54 166.82a43.685 43.685 0 0 1 -28.52 30.94l-12.02 4.64a7.831 7.831 0 0 1 -2.67.53q.495-2.235 1.05-4.47l3.49-13.93 4.55-1.76c.12-.05.24-.09.36-.13a27.9 27.9 0 0 0 16.13-38.94l-10.07-20.12a8.032 8.032 0 0 1 -.84-3.58h8.74l9.14 1.86 7.34 14.68a43.947 43.947 0 0 1 3.32 30.28z" fill="#e82f3e"/><path d="m152 139.5-23.073 14.78a30 30 0 0 0 -12.279 15.775l-20.648 61.945-16 8v16l24 8 24-16 24-64 16-2.667z" fill="#f6bb92"/><path d="m280 312h32l-1.455 2.911a100 100 0 0 0 -9.2 61.169l3.993 23.92h32l18.741-99.235a40 40 0 0 0 -11.021-35.707l-.53-.53a41.409 41.409 0 0 0 -20.3-11.144l-24.228-5.384z" fill="#f6bb92"/><path d="m300 248-36-8a120 120 0 0 1 -72 24h-8v13.578a34.423 34.423 0 0 0 15.328 28.641 34.428 34.428 0 0 0 19.094 5.781h61.578z" fill="#0296e5"/><path d="m337.338 400 25.931 16.1a20 20 0 0 1 8.723 22.342l-2.654 9.558-62.119-6.776a10 10 0 0 1 -8.653-12.215l6.772-29.009z" fill="#fd7422"/><path d="m184 344v24l-1.6.535a100 100 0 0 0 -39.088 24.158l-15.312 15.307 16 32 79.74-43.495a30 30 0 0 0 12.468-12.92l.625-1.251a30 30 0 0 0 3.167-13.416v-24.918z" fill="#f6bb92"/><path d="m128 408-24.825 12.413a10 10 0 0 0 -5.229 11.369l14.054 56.218h12a20 20 0 0 0 20-20v-28z" fill="#fd7422"/><path d="m236.54 166.82a43.685 43.685 0 0 1 -28.52 30.94l-12.02 4.64a7.831 7.831 0 0 1 -2.67.53q.495-2.235 1.05-4.47l3.49-13.93 4.55-1.76c.12-.05.24-.09.36-.13a27.9 27.9 0 0 0 16.13-38.94l-10.07-20.12a8.032 8.032 0 0 1 -.84-3.58h8.74l9.14 1.86 7.34 14.68a43.947 43.947 0 0 1 3.32 30.28z" fill="#027e2a"/><path d="m375.115 217.876a8 8 0 0 1 -7.909-6.87l-4.84-33.875a8 8 0 0 1 15.839-2.262l4.839 33.875a8 8 0 0 1 -6.788 9.05 7.88 7.88 0 0 1 -1.141.082z" fill="#cbcbcb"/><path d="m208 24h80a0 0 0 0 1 0 0 32 32 0 0 1 -32 32h-16a32 32 0 0 1 -32-32 0 0 0 0 1 0 0z" fill="#0296e5" transform="matrix(-1 0 0 -1 496 80)"/><path d="m292.687 64h-76.687a8 8 0 0 1 0-16h76.687a19.187 19.187 0 0 0 13.656-5.657 8 8 0 0 1 11.314 11.314 35.082 35.082 0 0 1 -24.97 10.343z" fill="#0276b4"/><path d="m428.438 177.344-24-16a8 8 0 0 0 -8.016-.5l-14.839 7.419-51.683 7.385-44.8-29.865-21.1-21.1v-4.683h16a8 8 0 0 0 8-8v-16a8 8 0 0 0 7.761-9.94l-5.515-22.06h2.441a35.082 35.082 0 0 0 24.97-10.343 8 8 0 0 0 -11.314-11.314 19.156 19.156 0 0 1 -11.186 5.482 40.067 40.067 0 0 0 -39.157-31.825h-16a40.045 40.045 0 0 0 -40 40 8 8 0 0 0 8 8v48h-10.718a28.183 28.183 0 0 0 -12.089 2.744l-60.581 32.8a38.126 38.126 0 0 0 -15.554 19.982l-19.6 58.8-13.036 6.518a8 8 0 0 0 -4.422 7.156v16a8 8 0 0 0 5.47 7.589l24 8a8 8 0 0 0 6.968-.933l24-16a8.006 8.006 0 0 0 3.053-3.847l8.683-23.155a40.082 40.082 0 0 0 31.866 35.546c-.009.1-.008.193-.014.288-.008.123-.017.245-.019.368 0 .048-.007.094-.007.142v98.317a108.609 108.609 0 0 0 -38.349 24.719l-14.39 14.389-23.661 11.834a17.9 17.9 0 0 0 -9.413 20.466l14.055 56.217a8 8 0 0 0 7.758 6.06h12a28.032 28.032 0 0 0 28-28v-23.251l75.571-41.22a37.824 37.824 0 0 0 15.791-16.365l.627-1.252a38.2 38.2 0 0 0 4.011-16.994v-48.918h51.513a107.23 107.23 0 0 0 -6.055 57.4l3.726 22.343-6.409 27.451a18 18 0 0 0 15.577 21.986l62.118 6.777a8 8 0 0 0 8.576-5.813l2.655-9.561a28.152 28.152 0 0 0 -12.213-31.283l-21.272-13.2 17.723-93.846a47.964 47.964 0 0 0 -13.225-42.854l-.529-.529a49.332 49.332 0 0 0 -24.223-13.3l-53.962-11.988v-7.694l8.53-17.061 36.5 14.6a8 8 0 0 0 2.97.572c.294 0 72.443-8 72.443-8h23.557a8 8 0 0 0 7.589-5.47l8-24a8 8 0 0 0 -3.151-9.186zm-171.593 43.078a7.994 7.994 0 0 0 -.845 3.578v11.911a112.8 112.8 0 0 1 -62.775 20.082l6.636-46.453 2.476-9.9c.064-.02.129-.026.193-.048l5.305-1.768a43.9 43.9 0 0 0 25.382-61.276l-2.8-5.593 21.625 4.406 19.958 19.952v34.8zm15.155-132.422v16h-16a8 8 0 0 0 -8 8v6.2l-24-4.891v-25.309h16a8 8 0 0 0 6.656-3.562l13.625-20.438h13.473l4.074 16.3a8 8 0 0 0 -5.828 7.7zm-32-56h16a24.042 24.042 0 0 1 22.629 16h-61.258a24.042 24.042 0 0 1 22.629-16zm1.052 32-5.333 8h-11.719v-8zm-48.952 65.176a12.081 12.081 0 0 1 5.182-1.176h13.774l7.85 15.7a27.887 27.887 0 0 1 -11.86 37.1l.715-2.863a8 8 0 0 0 -9.076-9.831l-25.549 4.258-11.029-28.834zm-70.685 113.6-18.6 12.4-14.815-4.942v-5.29l11.578-5.789a8 8 0 0 0 4.011-4.625l20.648-61.943a22.071 22.071 0 0 1 9-11.568l14.8-9.479 8.993 23.511-6.347 1.058a8 8 0 0 0 -6.176 5.082zm38.585-18.776v-33.223l29.279-4.88-5.04 20.163a7.7 7.7 0 0 0 -.158.809l-5.781 40.442a24.037 24.037 0 0 1 -18.3-23.311zm-24 244a12.013 12.013 0 0 1 -12 12h-5.754l-12.539-50.158a1.989 1.989 0 0 1 1.045-2.274l17.67-8.835 11.578 23.156zm96-99.082a22.114 22.114 0 0 1 -2.322 9.838l-.626 1.251a21.9 21.9 0 0 1 -9.142 9.475l-72.462 39.525-9.714-19.427 11.23-11.231a92.477 92.477 0 0 1 35.961-22.224l1.6-.535a8 8 0 0 0 5.475-7.59v-16h40zm0-32.918h-40v-25.255c.933.742 1.888 1.462 2.891 2.13a42.288 42.288 0 0 0 23.531 7.125h13.578zm132.284 100.3-.836 3.011-55.362-6.039a2 2 0 0 1 -1.73-2.443l5.33-22.829h23.371l23.993 14.894a12.065 12.065 0 0 1 5.234 13.406zm-25.412-166.115.529.529a31.981 31.981 0 0 1 8.817 28.566l-17.51 92.72h-18.594l-2.874-17.236a91.429 91.429 0 0 1 8.46-56.275l1.455-2.911a8 8 0 0 0 -7.155-11.578h-21.119l14.562-46.6 17.048 3.788a33.37 33.37 0 0 1 16.381 8.997zm-64.753 33.815h-55.7a26.423 26.423 0 0 1 -26.419-26.422v-5.578a128.846 128.846 0 0 0 73.757-23.414l24.011 5.335zm13.491-109.572a7.989 7.989 0 0 0 .39-2.428v-25.052l35.562 23.708a7.98 7.98 0 0 0 5.569 1.263l34.641-4.948 2.266 15.864-44.929 4.993zm122.624 5.572h-18.234a7.892 7.892 0 0 0 -.883.049l-9.169 1.019-2.337-16.36 5.52-.789a7.976 7.976 0 0 0 2.447-.764l11.847-5.924 15.054 10.036z"/></g></svg>